<svg xmlns="http://www.w3.org/2000/svg" width="192.653" height="256.83" viewBox="0 0 192.653 256.83">
  <path id="ic_whatshot_24px" d="M118.387.67s8.91,31.908,8.91,57.8c0,24.8-16.255,44.912-41.059,44.912-24.924,0-43.708-20.108-43.708-44.912l.361-4.335A165.779,165.779,0,0,0,4,161.174a96.326,96.326,0,1,0,192.653,0C196.653,96.274,165.467,38.358,118.387.67ZM96.834,221.378c-21.433,0-38.771-16.857-38.771-37.808,0-19.506,12.643-33.233,33.835-37.567,21.312-4.335,43.347-14.569,55.628-31.065a168.008,168.008,0,0,1,7.1,48.645,57.811,57.811,0,0,1-57.8,57.8Z" transform="translate(-4 -0.67)" fill="#04c4c4"/>
</svg>
